<svg width="49" height="37" viewBox="0 0 49 37" fill="none" xmlns="http://www.w3.org/2000/svg">
<path d="M39.5401 4.44243H35.8253V3.87296C35.8253 3.41986 35.5905 2.98532 35.1725 2.66493C34.7545 2.34454 34.1876 2.16455 33.5965 2.16455C33.0054 2.16455 32.4384 2.34454 32.0204 2.66493C31.6025 2.98532 31.3676 3.41986 31.3676 3.87296V4.44243H17.9946V3.87296C17.9946 3.41986 17.7598 2.98532 17.3418 2.66493C16.9238 2.34454 16.3569 2.16455 15.7657 2.16455C15.1746 2.16455 14.6077 2.34454 14.1897 2.66493C13.7717 2.98532 13.5369 3.41986 13.5369 3.87296V4.44243H9.82216C8.83695 4.44243 7.89209 4.74242 7.19544 5.2764C6.49879 5.81038 6.10742 6.53461 6.10742 7.28978V30.0686C6.10742 30.8237 6.49879 31.548 7.19544 32.0819C7.89209 32.6159 8.83695 32.9159 9.82216 32.9159H39.5401C40.5253 32.9159 41.4701 32.6159 42.1668 32.0819C42.8634 31.548 43.2548 30.8237 43.2548 30.0686V7.28978C43.2548 6.53461 42.8634 5.81038 42.1668 5.2764C41.4701 4.74242 40.5253 4.44243 39.5401 4.44243ZM13.5369 7.85925C13.5369 8.31235 13.7717 8.74689 14.1897 9.06728C14.6077 9.38766 15.1746 9.56766 15.7657 9.56766C16.3569 9.56766 16.9238 9.38766 17.3418 9.06728C17.7598 8.74689 17.9946 8.31235 17.9946 7.85925H31.3676C31.3676 8.31235 31.6025 8.74689 32.0204 9.06728C32.4384 9.38766 33.0054 9.56766 33.5965 9.56766C34.1876 9.56766 34.7545 9.38766 35.1725 9.06728C35.5905 8.74689 35.8253 8.31235 35.8253 7.85925H38.7971V11.2761H10.5651V7.85925H13.5369ZM10.5651 29.4991V14.6929H38.7971V29.4991H10.5651ZM21.7093 18.1097V26.0823C21.7093 26.5354 21.4745 26.9699 21.0565 27.2903C20.6385 27.6107 20.0716 27.7907 19.4805 27.7907C18.8893 27.7907 18.3224 27.6107 17.9044 27.2903C17.4865 26.9699 17.2516 26.5354 17.2516 26.0823V20.8602C16.7213 20.9937 16.145 20.9697 15.6366 20.7931C15.1282 20.6165 14.7247 20.3001 14.506 19.9065C14.2873 19.5128 14.2692 19.0706 14.4554 18.6673C14.6415 18.2639 15.0183 17.9288 15.5113 17.7282L18.4831 16.5892C18.8222 16.4592 19.1989 16.3975 19.5777 16.4102C19.9566 16.4229 20.3249 16.5095 20.6479 16.6617C20.9709 16.8139 21.2379 17.0268 21.4236 17.2802C21.6094 17.5336 21.7077 17.8191 21.7093 18.1097ZM33.1303 22.9331L31.3491 24.3739H32.1106C32.7017 24.3739 33.2686 24.5539 33.6866 24.8742C34.1046 25.1946 34.3394 25.6292 34.3394 26.0823C34.3394 26.5354 34.1046 26.9699 33.6866 27.2903C33.2686 27.6107 32.7017 27.7907 32.1106 27.7907H26.167C25.7314 27.7906 25.3055 27.6926 24.9417 27.509C24.578 27.3253 24.2924 27.064 24.1203 26.7573C23.9482 26.4506 23.8971 26.112 23.9733 25.7833C24.0496 25.4546 24.2498 25.1502 24.5492 24.9077L29.7796 20.6723C29.8457 20.5859 29.8809 20.4877 29.8817 20.3876C29.8822 20.2619 29.8284 20.1397 29.7288 20.04C29.6291 19.9402 29.4893 19.8685 29.3309 19.836C29.1726 19.8035 29.0047 19.8121 28.8534 19.8603C28.7021 19.9086 28.5758 19.9939 28.4943 20.1028C28.193 20.4864 27.7074 20.764 27.1418 20.8759C26.5763 20.9877 25.976 20.925 25.4702 20.7011C24.9644 20.4772 24.5935 20.1101 24.4372 19.6787C24.2809 19.2473 24.3519 18.7862 24.6347 18.3944C25.207 17.6344 26.0906 17.0404 27.1484 16.7045C28.2061 16.3686 29.3789 16.3097 30.4848 16.5368C31.5907 16.7639 32.5679 17.2644 33.2648 17.9607C33.9618 18.6569 34.3395 19.51 34.3394 20.3876C34.3428 21.2541 33.9748 22.0974 33.2919 22.7879C33.242 22.8389 33.1881 22.8874 33.1303 22.9331Z" fill="#EF801A"/>
</svg>
