<svg width="35" height="26" viewBox="0 0 35 26" fill="none" xmlns="http://www.w3.org/2000/svg">
<path opacity="0.4" d="M24.5692 0.810791H30.4476C32.8821 0.810791 34.8547 2.22026 34.8547 3.95971V8.15984C34.8547 9.89928 32.8821 11.3088 30.4476 11.3088H24.5692C22.1348 11.3088 20.1621 9.89928 20.1621 8.15984V3.95971C20.1621 2.22026 22.1348 0.810791 24.5692 0.810791Z" fill="#EF801A"/>
<path d="M10.4183 14.9141C12.8528 14.9141 14.8254 16.3236 14.8254 18.063V22.2631C14.8254 24.0014 12.8528 25.4121 10.4183 25.4121H4.53994C2.10546 25.4121 0.132812 24.0014 0.132812 22.2631V18.063C0.132812 16.3236 2.10546 14.9141 4.53994 14.9141H10.4183ZM30.4476 14.9141C32.8821 14.9141 34.8548 16.3236 34.8548 18.063V22.2631C34.8548 24.0014 32.8821 25.4121 30.4476 25.4121H24.5693C22.1348 25.4121 20.1621 24.0014 20.1621 22.2631V18.063C20.1621 16.3236 22.1348 14.9141 24.5693 14.9141H30.4476ZM10.4183 0.810791C12.8528 0.810791 14.8254 2.22026 14.8254 3.95971V8.15984C14.8254 9.89928 12.8528 11.3088 10.4183 11.3088H4.53994C2.10546 11.3088 0.132812 9.89928 0.132812 8.15984V3.95971C0.132812 2.22026 2.10546 0.810791 4.53994 0.810791H10.4183Z" fill="#EF801A"/>
</svg>
