<svg width="142" height="139" viewBox="0 0 142 139" fill="none" xmlns="http://www.w3.org/2000/svg">
<path d="M41.4167 38.6112C44.6844 38.6112 47.3333 36.0181 47.3333 32.8195C47.3333 29.6208 44.6844 27.0278 41.4167 27.0278C38.149 27.0278 35.5 29.6208 35.5 32.8195C35.5 36.0181 38.149 38.6112 41.4167 38.6112Z" fill="#056C89"/>
<path d="M110.428 56.6117C113.696 56.6117 116.345 54.0186 116.345 50.82C116.345 47.6213 113.696 45.0283 110.428 45.0283C107.161 45.0283 104.512 47.6213 104.512 50.82C104.512 54.0186 107.161 56.6117 110.428 56.6117Z" fill="#056C89"/>
<path d="M59.153 96.5433C62.4207 96.5433 65.0697 93.9503 65.0697 90.7516C65.0697 87.553 62.4207 84.96 59.153 84.96C55.8853 84.96 53.2363 87.553 53.2363 90.7516C53.2363 93.9503 55.8853 96.5433 59.153 96.5433Z" fill="#056C89"/>
<path d="M30.4453 52.3259L36.5218 47.0864L46.0555 46.7041L51.911 52.1618L53.26 59.8454L29.4336 59.8299L30.4453 52.3259ZM99.5796 70.3302L105.658 65.0907L115.192 64.7085L121.045 70.1661L122.396 77.8498L98.5679 77.8362L99.5796 70.3302ZM48.29 110.258L54.3664 105.018L63.9021 104.636L69.7557 110.094L71.1047 117.778L47.2783 117.762L48.29 110.258Z" fill="#056C89"/>
<path d="M41.4167 38.6112C44.6844 38.6112 47.3333 36.0181 47.3333 32.8195C47.3333 29.6208 44.6844 27.0278 41.4167 27.0278C38.149 27.0278 35.5 29.6208 35.5 32.8195C35.5 36.0181 38.149 38.6112 41.4167 38.6112Z" stroke="black" stroke-width="2" stroke-miterlimit="10"/>
<path d="M29.582 57.9164C29.582 57.9164 31.5543 49.5938 35.4987 47.6632C39.4431 45.7327 43.3876 45.7327 47.332 47.6632C51.2765 49.5938 53.2487 57.9164 53.2487 57.9164" stroke="black" stroke-width="2" stroke-miterlimit="10" stroke-linecap="round" stroke-linejoin="round"/>
<path d="M110.428 56.6117C113.696 56.6117 116.345 54.0186 116.345 50.82C116.345 47.6213 113.696 45.0283 110.428 45.0283C107.161 45.0283 104.512 47.6213 104.512 50.82C104.512 54.0186 107.161 56.6117 110.428 56.6117Z" stroke="black" stroke-width="2" stroke-miterlimit="10"/>
<path d="M98.5938 75.9169C98.5938 75.9169 100.566 67.5943 104.51 65.6637C108.455 63.7332 112.399 63.7332 116.344 65.6637C120.288 67.5943 122.26 75.915 122.26 75.915" stroke="black" stroke-width="2" stroke-miterlimit="10" stroke-linecap="round" stroke-linejoin="round"/>
<path d="M59.153 96.5433C62.4207 96.5433 65.0697 93.9503 65.0697 90.7516C65.0697 87.553 62.4207 84.96 59.153 84.96C55.8853 84.96 53.2363 87.553 53.2363 90.7516C53.2363 93.9503 55.8853 96.5433 59.153 96.5433Z" stroke="black" stroke-width="2" stroke-miterlimit="10"/>
<path d="M47.3189 115.849C47.3189 115.849 49.2911 107.526 53.2355 105.595C57.18 103.665 61.1244 103.665 65.0689 105.595C69.0133 107.526 70.9855 115.847 70.9855 115.847M103.644 38.8735C95.3228 29.2651 82.9017 23.1665 69.0271 23.1665C63.5641 23.1665 58.3298 24.1125 53.4801 25.8442M77.77 111.148C93.9679 108.051 107.081 96.5199 112.14 81.4133M23.8376 63.685C23.7232 64.9767 23.6659 66.2727 23.666 67.5693C23.666 82.9635 31.6693 96.5276 43.8261 104.495" stroke="black" stroke-width="2" stroke-miterlimit="10" stroke-linecap="round" stroke-linejoin="round"/>
</svg>
