<svg width="57" height="46" viewBox="0 0 57 46" fill="none" xmlns="http://www.w3.org/2000/svg">
<path d="M28.6806 3.83447C18.5105 3.83447 10.1895 10.6681 10.1895 19.0203C10.1895 29.2708 26.3692 40.85 27.0626 41.4195C27.5249 41.6093 28.2183 41.7991 28.6806 41.7991C29.1429 41.7991 29.8363 41.6093 30.2986 41.4195C30.992 40.85 47.1717 29.2708 47.1717 19.0203C47.1717 10.6681 38.8507 3.83447 28.6806 3.83447ZM28.6806 37.4332C23.8267 33.6367 14.8122 25.4743 14.8122 19.0203C14.8122 12.7562 21.053 7.63094 28.6806 7.63094C36.3082 7.63094 42.5489 12.7562 42.5489 19.0203C42.5489 25.2845 33.5345 33.6367 28.6806 37.4332ZM28.6806 11.4274C23.5955 11.4274 19.435 14.8442 19.435 19.0203C19.435 23.1964 23.5955 26.6133 28.6806 26.6133C33.7657 26.6133 37.9262 23.1964 37.9262 19.0203C37.9262 14.8442 33.7657 11.4274 28.6806 11.4274ZM28.6806 22.8168C26.1381 22.8168 24.0578 21.1084 24.0578 19.0203C24.0578 16.9323 26.1381 15.2239 28.6806 15.2239C31.2231 15.2239 33.3034 16.9323 33.3034 19.0203C33.3034 21.1084 31.2231 22.8168 28.6806 22.8168Z" fill="#EF801A"/>
</svg>
