<svg width="57" height="43" viewBox="0 0 57 43" fill="none" xmlns="http://www.w3.org/2000/svg">
<path d="M37.9251 23.4381C37.9251 22.4636 36.8849 21.6664 35.6137 21.6664H28.6795C27.4082 21.6664 26.3681 22.4636 26.3681 23.4381C26.3681 24.4125 27.4082 25.2098 28.6795 25.2098H35.6137C36.8849 25.2098 37.9251 24.4125 37.9251 23.4381ZM28.6795 11.0363C37.5991 11.0363 44.8592 16.6011 44.8592 23.4381C44.8592 30.275 37.5991 35.8399 28.6795 35.8399C19.7598 35.8399 12.4997 30.275 12.4997 23.4381C12.4997 16.6011 19.7598 11.0363 28.6795 11.0363ZM28.6795 7.49292C17.1896 7.49292 7.87695 14.631 7.87695 23.4381C7.87695 32.2451 17.1896 39.3832 28.6795 39.3832C40.1694 39.3832 49.482 32.2451 49.482 23.4381C49.482 14.631 40.1694 7.49292 28.6795 7.49292ZM30.9909 18.123C30.9909 17.1486 29.9507 16.3513 28.6795 16.3513C27.4082 16.3513 26.3681 17.1486 26.3681 18.123V23.4381C26.3681 24.4125 27.4082 25.2098 28.6795 25.2098C29.9507 25.2098 30.9909 24.4125 30.9909 23.4381V18.123ZM28.6795 14.5797C35.052 14.5797 40.2364 18.5535 40.2364 23.4381C40.2364 28.3226 35.052 32.2965 28.6795 32.2965C22.307 32.2965 17.1225 28.3226 17.1225 23.4381C17.1225 18.5535 22.307 14.5797 28.6795 14.5797ZM28.6795 12.808C25.0014 12.808 21.4739 13.9279 18.8731 15.9215C16.2723 17.915 14.8111 20.6188 14.8111 23.4381C14.8111 26.2573 16.2723 28.9612 18.8731 30.9547C21.4739 32.9482 25.0014 34.0682 28.6795 34.0682C32.3576 34.0682 35.8851 32.9482 38.4859 30.9547C41.0867 28.9612 42.5478 26.2573 42.5478 23.4381C42.5478 20.6188 41.0867 17.915 38.4859 15.9215C35.8851 13.9279 32.3576 12.808 28.6795 12.808Z" fill="#EF801A"/>
</svg>
